<svg width="32" height="32" viewBox="0 0 32 32" fill="none" xmlns="http://www.w3.org/2000/svg">
    <path d="M21.3332 2.6665H10.6665C6.2545 2.6665 2.6665 6.2545 2.6665 10.6665V26.6665C2.6665 27.0201 2.80698 27.3593 3.05703 27.6093C3.30708 27.8594 3.64622 27.9998 3.99984 27.9998H21.3332C25.7452 27.9998 29.3332 24.4118 29.3332 19.9998V10.6665C29.3332 6.2545 25.7452 2.6665 21.3332 2.6665ZM26.6665 19.9998C26.6665 22.9412 24.2745 25.3332 21.3332 25.3332H5.33317V10.6665C5.33317 7.72517 7.72517 5.33317 10.6665 5.33317H21.3332C24.2745 5.33317 26.6665 7.72517 26.6665 10.6665V19.9998Z" fill="#4CAF50"/>
    <path d="M12.6665 17.3335C13.7711 17.3335 14.6665 16.4381 14.6665 15.3335C14.6665 14.2289 13.7711 13.3335 12.6665 13.3335C11.5619 13.3335 10.6665 14.2289 10.6665 15.3335C10.6665 16.4381 11.5619 17.3335 12.6665 17.3335Z" fill="#4CAF50"/>
    <path d="M19.3335 17.3335C20.4381 17.3335 21.3335 16.4381 21.3335 15.3335C21.3335 14.2289 20.4381 13.3335 19.3335 13.3335C18.2289 13.3335 17.3335 14.2289 17.3335 15.3335C17.3335 16.4381 18.2289 17.3335 19.3335 17.3335Z" fill="#4CAF50"/>
</svg>
