<svg width="20" height="20" viewBox="0 0 20 20" fill="none" xmlns="http://www.w3.org/2000/svg">
    <path d="M19.555 6.16782L10.555 0.167816C10.3908 0.0583894 10.1978 0 10.0005 0C9.80316 0 9.61023 0.0583894 9.446 0.167816L0.446 6.16782C0.308899 6.25905 0.196451 6.38273 0.118646 6.52788C0.0408404 6.67302 8.51008e-05 6.83513 0 6.99982V17.9998C0 19.1028 0.897 19.9998 2 19.9998H18C19.103 19.9998 20 19.1028 20 17.9998V6.99982C20 6.66582 19.833 6.35382 19.555 6.16782ZM10 2.20182L17.197 6.99982L10 11.7978L2.803 6.99982L10 2.20182ZM2 17.9998V8.86882L9.445 13.8318C9.60933 13.9415 9.80245 14 10 14C10.1975 14 10.3907 13.9415 10.555 13.8318L18 8.86882L17.997 17.9998H2Z" fill="#A5ADBA"/>
</svg>
