<svg width="20" height="20" viewBox="0 0 20 20" fill="none" xmlns="http://www.w3.org/2000/svg">
    <path d="M13.3334 1.6665H6.66669C3.90919 1.6665 1.66669 3.909 1.66669 6.6665V16.6665C1.66669 16.8875 1.75448 17.0995 1.91076 17.2558C2.06704 17.412 2.27901 17.4998 2.50002 17.4998H13.3334C16.0909 17.4998 18.3334 15.2573 18.3334 12.4998V6.6665C18.3334 3.909 16.0909 1.6665 13.3334 1.6665ZM16.6667 12.4998C16.6667 14.3382 15.1717 15.8332 13.3334 15.8332H3.33335V6.6665C3.33335 4.82817 4.82835 3.33317 6.66669 3.33317H13.3334C15.1717 3.33317 16.6667 4.82817 16.6667 6.6665V12.4998Z" fill="#DB6900"/>
    <path d="M7.91669 10.8335C8.60704 10.8335 9.16669 10.2739 9.16669 9.5835C9.16669 8.89314 8.60704 8.3335 7.91669 8.3335C7.22633 8.3335 6.66669 8.89314 6.66669 9.5835C6.66669 10.2739 7.22633 10.8335 7.91669 10.8335Z" fill="#DB6900"/>
    <path d="M12.0833 10.8335C12.7737 10.8335 13.3333 10.2739 13.3333 9.5835C13.3333 8.89314 12.7737 8.3335 12.0833 8.3335C11.393 8.3335 10.8333 8.89314 10.8333 9.5835C10.8333 10.2739 11.393 10.8335 12.0833 10.8335Z" fill="#DB6900"/>
</svg>