<svg width="20" height="20" viewBox="0 0 20 20" fill="none" xmlns="http://www.w3.org/2000/svg">
    <path d="M13.3334 1.6665H6.66669C3.90919 1.6665 1.66669 3.909 1.66669 6.6665V17.4998C1.66669 17.7209 1.75448 17.9328 1.91076 18.0891C2.06704 18.2454 2.27901 18.3332 2.50002 18.3332H13.3334C16.0909 18.3332 18.3334 16.0907 18.3334 13.3332V6.6665C18.3334 3.909 16.0909 1.6665 13.3334 1.6665ZM16.6667 13.3332C16.6667 15.1715 15.1717 16.6665 13.3334 16.6665H3.33335V6.6665C3.33335 4.82817 4.82835 3.33317 6.66669 3.33317H13.3334C15.1717 3.33317 16.6667 4.82817 16.6667 6.6665V13.3332Z" fill="#009E4F"/>
    <path d="M9.16668 11.3218L7.25585 9.41097L6.07751 10.5893L9.16668 13.6785L14.3392 8.50597L13.1608 7.32764L9.16668 11.3218Z" fill="#009E4F"/>
</svg>
